G04 DipTrace 3.3.1.3*
G04 BottomDimension.gbr*
%MOIN*%
G04 #@! TF.FileFunction,Drawing,Bot*
G04 #@! TF.Part,Single*
%ADD13C,0.001378*%
%ADD56C,0.006176*%
%FSLAX26Y26*%
G04*
G70*
G90*
G75*
G01*
G04 BotDimension*
%LPD*%
X1445702Y679870D2*
D13*
X3094488D1*
X1438976Y395669D2*
X3094488D1*
X3074803Y537770D2*
Y640500D1*
G36*
Y679870D2*
X3082677Y640500D1*
X3066929D1*
X3074803Y679870D1*
G37*
Y537770D2*
D13*
Y435039D1*
G36*
Y395669D2*
X3066929Y435039D1*
X3082677D1*
X3074803Y395669D1*
G37*
X3087014Y481689D2*
D56*
X3127162Y500834D1*
Y474039D1*
X3090861Y515087D2*
X3088915Y513185D1*
X3087014Y515087D1*
X3088915Y517032D1*
X3090861Y515087D1*
X3117611Y531329D2*
X3119512D1*
X3123359Y533230D1*
X3125260Y535132D1*
X3127162Y538978D1*
Y546628D1*
X3125260Y550430D1*
X3123359Y552331D1*
X3119512Y554277D1*
X3115710D1*
X3111863Y552331D1*
X3106159Y548529D1*
X3087014Y529384D1*
Y556178D1*
X3117611Y570475D2*
X3119512D1*
X3123359Y572376D1*
X3125260Y574278D1*
X3127162Y578124D1*
Y585774D1*
X3125260Y589576D1*
X3123359Y591478D1*
X3119512Y593423D1*
X3115710D1*
X3111863Y591478D1*
X3106159Y587675D1*
X3087014Y568530D1*
Y595324D1*
M02*
