G04 DipTrace 3.3.1.3*
G04 Top.gbr*
%MOIN*%
G04 #@! TF.FileFunction,Copper,L1,Top*
G04 #@! TF.Part,Single*
G04 #@! TA.AperFunction,Conductor*
%ADD15C,0.03937*%
%ADD16C,0.019685*%
G04 #@! TA.AperFunction,ComponentPad*
%ADD17C,0.062992*%
%ADD18C,0.070866*%
%ADD21C,0.047244*%
%ADD22C,0.051811*%
%ADD23C,0.07874*%
%ADD24O,0.07874X0.03937*%
%ADD25C,0.055118*%
%ADD26C,0.076378*%
%ADD27C,0.255906*%
%ADD28C,0.094488*%
%ADD29C,0.055118*%
%ADD32C,0.059055*%
%FSLAX26Y26*%
G04*
G70*
G90*
G75*
G01*
G04 Top*
%LPD*%
X976378Y1240157D2*
D16*
Y1182283D1*
G02X903543Y1109449I-72837J2D01*
G01*
D3*
X562992Y562992D2*
X764717D1*
G03X1017717Y815992I-1J253001D01*
G01*
Y995276D1*
G03X903543Y1109449I-114175J-1D01*
G01*
X836614Y2417323D2*
X661417D1*
G02X527559Y2551181I0J133858D01*
G01*
X1663386Y1838583D2*
X1950000D1*
X1950787Y1839370D1*
Y1346585D1*
G02X1755740Y1151575I-195009J-2D01*
G01*
X702756Y1856299D2*
D15*
Y868110D1*
G02X564961Y730315I-137796J1D01*
G01*
D3*
X976378Y1938976D2*
D16*
X2050394D1*
X2050787Y1939370D1*
X976378Y1938976D2*
Y2096457D1*
G02X1033465Y2153543I57087J-1D01*
G01*
X1139764D1*
G03X1140551Y2154331I-1J789D01*
G01*
X836614Y2153543D2*
Y1979528D1*
G03X927165Y1888976I90553J2D01*
G01*
X976378D1*
X875984Y1728346D2*
Y1688976D1*
G02X828740Y1641732I-47243J-1D01*
G01*
X875984Y1728346D2*
Y1837795D1*
G02X927165Y1888976I51182J-1D01*
G01*
X836614Y2338583D2*
Y2153543D1*
X976378Y1838976D2*
X1340945D1*
G03X1372047Y1870079I-2J31104D01*
G01*
D3*
X976378Y1838976D2*
X975984Y1728346D1*
Y1640551D1*
X976100Y1640273D1*
X976378Y1640157D1*
X828740Y1241732D2*
Y1084252D1*
G03X903543Y1009449I74804J0D01*
G01*
D3*
X2393701Y1923228D2*
Y1801575D1*
G03X2473622Y1721654I79920J-1D01*
G01*
D3*
X1372047Y2007874D2*
Y2049432D1*
G02X1476159Y2153543I104111J0D01*
G01*
X2242126D1*
X2318898D1*
G02X2393701Y2078740I0J-74804D01*
G01*
Y1923228D1*
X2242126Y2153543D2*
D3*
X2246063Y2415354D2*
X2301575D1*
G02X2393701Y2323228I0J-92126D01*
G01*
D3*
X1950787Y2039370D2*
X2159449D1*
G02X2242126Y1956693I1J-82676D01*
G01*
Y1532744D1*
G03X2426297Y1348564I184179J0D01*
G01*
D17*
X836614Y2338583D3*
Y2417323D3*
X2246063Y2415354D3*
Y2553150D3*
X1372047Y2007874D3*
Y1870079D3*
D18*
X702756Y1856299D3*
X564961D3*
D21*
X836614Y2153543D3*
X1033465D3*
X2242126D3*
Y1956693D3*
D22*
X875984Y1728346D3*
X975984D3*
D23*
X2551181Y2551181D3*
X2473622Y1721654D3*
X2551181Y529134D3*
X562992Y562992D3*
X527559Y2551181D3*
D24*
X976378Y1938976D3*
Y1888976D3*
Y1838976D3*
D25*
X1950787Y2039370D3*
Y1839370D3*
X2050787Y1939370D3*
D26*
X1755722Y1151575D3*
X1997962Y796301D3*
D27*
X2426279Y1348564D3*
X1445556Y679870D3*
D28*
X564961Y730315D3*
Y1596457D3*
D29*
X1663386Y1838583D3*
Y2238583D3*
X1140551Y2154331D3*
Y2554331D3*
X2393701Y1923228D3*
Y2323228D3*
X976378Y1240157D3*
Y1640157D3*
X828740Y1641732D3*
Y1241732D3*
D32*
X903543Y1109449D3*
Y1009449D3*
Y909449D3*
M02*
