G04 DipTrace 3.3.1.3*
G04 TopAssy.gbr*
%MOIN*%
G04 #@! TF.FileFunction,Drawing,Top*
G04 #@! TF.Part,Single*
%ADD19C,0.007874*%
%ADD31C,0.08622*%
%FSLAX26Y26*%
G04*
G70*
G90*
G75*
G01*
G04 TopAssy*
%LPD*%
X793244Y2251969D2*
D19*
X1076709D1*
Y2055118D1*
X793244D1*
Y2251969D1*
X2340551Y2196913D2*
Y1913449D1*
X2143701D1*
Y2196913D1*
X2340551D1*
X850929Y1778346D2*
X1000933D1*
Y1678346D1*
X850929D1*
Y1778346D1*
X1559915Y1007130D2*
X1560828Y1033277D1*
X1563564Y1059297D1*
X1568110Y1085062D1*
X1574443Y1110448D1*
X1582532Y1135331D1*
X1592338Y1159589D1*
X1603813Y1183105D1*
X1616902Y1205763D1*
X1631540Y1227453D1*
X1647656Y1248070D1*
X1665172Y1267513D1*
X1684002Y1285687D1*
X1704054Y1302505D1*
X1725232Y1317883D1*
X1747431Y1331747D1*
X1770544Y1344030D1*
X1794458Y1354672D1*
X1819056Y1363620D1*
X1844219Y1370832D1*
X1869824Y1376271D1*
X1895746Y1379912D1*
X1921859Y1381738D1*
X1948036D1*
X1974149Y1379912D1*
X2000072Y1376271D1*
X2025677Y1370832D1*
X2050839Y1363620D1*
X2075438Y1354672D1*
X2099351Y1344030D1*
X2122464Y1331747D1*
X2144664Y1317883D1*
X2165841Y1302505D1*
X2185894Y1285687D1*
X2204724Y1267513D1*
X2222240Y1248070D1*
X2238356Y1227453D1*
X2252994Y1205763D1*
X2266082Y1183105D1*
X2277558Y1159589D1*
X2287364Y1135331D1*
X2295453Y1110448D1*
X2301786Y1085062D1*
X2306331Y1059297D1*
X2309067Y1033277D1*
X2309981Y1007130D1*
X2309067Y980982D1*
X2306331Y954962D1*
X2301786Y929197D1*
X2295453Y903811D1*
X2287364Y878928D1*
X2277558Y854670D1*
X2266082Y831155D1*
X2252994Y808497D1*
X2238356Y786806D1*
X2222240Y766189D1*
X2204724Y746746D1*
X2185894Y728572D1*
X2165841Y711755D1*
X2144664Y696376D1*
X2122464Y682512D1*
X2099351Y670229D1*
X2075438Y659587D1*
X2050839Y650639D1*
X2025677Y643428D1*
X2000072Y637988D1*
X1974149Y634347D1*
X1948036Y632522D1*
X1921859D1*
X1895746Y634347D1*
X1869824Y637988D1*
X1844219Y643428D1*
X1819056Y650639D1*
X1794458Y659587D1*
X1770544Y670229D1*
X1747431Y682512D1*
X1725232Y696376D1*
X1704054Y711755D1*
X1684002Y728572D1*
X1665172Y746746D1*
X1647656Y766189D1*
X1631540Y786806D1*
X1616902Y808497D1*
X1603813Y831155D1*
X1592338Y854670D1*
X1582532Y878928D1*
X1574443Y903811D1*
X1568110Y929197D1*
X1563564Y954962D1*
X1560828Y980982D1*
X1559915Y1007130D1*
X2089928Y506298D2*
G03X2338268Y675680I-18133J293329D01*
G01*
X2089928Y506298D1*
X1279569Y730854D2*
G03X1431628Y507924I169774J-47523D01*
G01*
X1280233Y729940D1*
X1778241Y1513245D2*
G03X1514629Y1333600I40084J-342055D01*
G01*
X1778241Y1513245D1*
X2591123Y1293159D2*
G03X2434815Y1522390I-161603J57713D01*
G01*
X2591123Y1293159D1*
D31*
X859153Y872652D3*
M02*
