G04 DipTrace 3.3.1.3*
G04 Bottom.gbr*
%MOIN*%
G04 #@! TF.FileFunction,Copper,L2,Bot*
G04 #@! TF.Part,Single*
G04 #@! TA.AperFunction,ComponentPad*
%ADD14C,0.07874*%
G04 #@! TA.AperFunction,Conductor*
%ADD15C,0.03937*%
%ADD16C,0.019685*%
G04 #@! TA.AperFunction,ComponentPad*
%ADD17C,0.062992*%
%ADD18C,0.070866*%
%ADD22C,0.07874*%
%ADD25C,0.055118*%
%ADD26C,0.047244*%
%ADD27C,0.255906*%
%ADD28C,0.094488*%
%ADD29C,0.055118*%
%ADD32C,0.059055*%
%FSLAX26Y26*%
G04*
G70*
G90*
G75*
G01*
G04 Bottom*
%LPD*%
X564961Y1917323D2*
D14*
Y2224552D1*
G02X891591Y2551181I326633J-5D01*
G01*
X1106299Y2553543D1*
X1663386Y2553150D1*
X2246063D1*
X1663386Y2238583D2*
D15*
Y2553150D1*
X2246063D2*
D14*
X2551181Y2551181D1*
X564961Y1596457D2*
Y1917323D1*
X1997999Y796301D2*
G03X1884996Y909429I-112911J217D01*
G01*
X1007602Y909449D1*
X744094D1*
G03X564961Y730315I0J-179134D01*
G01*
D3*
X903543Y909449D2*
D16*
X1007602D1*
X2426324Y1348564D2*
D14*
X2426333Y653881D1*
G03X2551181Y529134I124919J172D01*
G01*
D17*
X830709Y2248031D3*
Y2326772D3*
X2246063Y2415354D3*
Y2553150D3*
X1372047Y2007874D3*
Y1870079D3*
D18*
X702756Y1917323D3*
X564961D3*
D22*
X2551181Y2551181D3*
X2473622Y1721654D3*
X2551181Y529134D3*
X562992Y562992D3*
X527559Y2551181D3*
D25*
X1950787Y2039370D3*
D26*
Y1839370D3*
D25*
X2050787Y1939370D3*
D14*
X1755742Y1151575D3*
X1997982Y796301D3*
D27*
X2426299Y1348564D3*
X1445576Y679870D3*
D28*
X564961Y730315D3*
Y1596457D3*
D29*
X1663386Y1838583D3*
Y2238583D3*
X1106299Y2153543D3*
Y2553543D3*
X2393701Y1923228D3*
Y2323228D3*
X976378Y1240157D3*
Y1640157D3*
X828740Y1641732D3*
Y1241732D3*
D32*
X903543Y1109449D3*
Y1009449D3*
Y909449D3*
M02*
