G04 DipTrace 3.3.1.3*
G04 Top.gbr*
%MOIN*%
G04 #@! TF.FileFunction,Copper,L1,Top*
G04 #@! TF.Part,Single*
G04 #@! TA.AperFunction,ComponentPad*
%ADD14C,0.07874*%
G04 #@! TA.AperFunction,Conductor*
%ADD15C,0.03937*%
%ADD16C,0.019685*%
G04 #@! TA.AperFunction,ComponentPad*
%ADD17C,0.062992*%
%ADD18C,0.070866*%
%ADD20R,0.040157X0.057874*%
%ADD21R,0.057874X0.040157*%
G04 #@! TA.AperFunction,ComponentPad*
%ADD22C,0.07874*%
%ADD24R,0.023622X0.041339*%
G04 #@! TA.AperFunction,ComponentPad*
%ADD25C,0.055118*%
%ADD26C,0.047244*%
%ADD27C,0.255906*%
%ADD28C,0.094488*%
%ADD29C,0.055118*%
%ADD32C,0.059055*%
%FSLAX26Y26*%
G04*
G70*
G90*
G75*
G01*
G04 Top*
%LPD*%
X976378Y1240157D2*
D16*
Y1182283D1*
G02X903543Y1109449I-72837J2D01*
G01*
D3*
X562992Y562992D2*
X764717D1*
G03X1017717Y815992I-1J253001D01*
G01*
Y995276D1*
G03X903543Y1109449I-114175J-1D01*
G01*
X527559Y2551181D2*
X642699D1*
G02X830709Y2363172I-1J-188010D01*
G01*
Y2326772D1*
X1663386Y1838583D2*
X1950000D1*
X1950787Y1839370D1*
Y1346585D1*
G02X1755768Y1151575I-195009J-2D01*
G01*
X702756Y1917323D2*
D15*
Y868110D1*
G02X564961Y730315I-137796J1D01*
G01*
D3*
X2050787Y1939370D2*
D16*
X1107874D1*
X1107480Y1938976D1*
X1106299D1*
Y2023622D2*
Y2153543D1*
Y2023622D2*
Y1938976D1*
X1068898Y1852362D2*
Y1755906D1*
G03X1076772Y1748031I7872J-2D01*
G01*
D3*
X1043307Y2023622D2*
Y1913386D1*
X1068898Y1887795D1*
Y1852362D1*
X830709Y2248031D2*
Y2203594D1*
G03X1010681Y2023622I179972J0D01*
G01*
X1043307D1*
X1076772Y1748031D2*
X905537D1*
G03X828740Y1671235I1J-76797D01*
G01*
Y1641732D1*
X1143701Y1852362D2*
Y1805298D1*
Y1751969D1*
G02X1139764Y1748031I-3938J1D01*
G01*
D3*
X1143701Y1805298D2*
X1307266D1*
G03X1372047Y1870079I0J64780D01*
G01*
X976378Y1640157D2*
X1066734D1*
G03X1139764Y1713188I1J73029D01*
G01*
Y1748031D1*
X828740Y1241732D2*
Y1084252D1*
G03X903543Y1009449I74804J0D01*
G01*
D3*
X2393701Y1923228D2*
Y1801575D1*
G03X2473622Y1721654I79920J-1D01*
G01*
D3*
X1372047Y2007874D2*
Y2096457D1*
G02X1429134Y2153543I57087J-1D01*
G01*
X2175197D1*
X2318898D1*
G02X2393701Y2078740I0J-74804D01*
G01*
Y1923228D1*
X2175197Y2102362D2*
Y2153543D1*
X2246063Y2415354D2*
X2301575D1*
G02X2393701Y2323228I0J-92126D01*
G01*
D3*
X1950787Y2039370D2*
X2175197D1*
Y1599701D1*
G03X2426324Y1348564I251137J1D01*
G01*
D17*
X830709Y2248031D3*
Y2326772D3*
X2246063Y2415354D3*
Y2553150D3*
X1372047Y2007874D3*
Y1870079D3*
D18*
X702756Y1917323D3*
X564961D3*
D20*
X1043307Y2023622D3*
X1106299D3*
D21*
X2175197Y2102362D3*
Y2039370D3*
D20*
X1076772Y1748031D3*
X1139764D3*
D22*
X2551181Y2551181D3*
X2473622Y1721654D3*
X2551181Y529134D3*
X562992Y562992D3*
X527559Y2551181D3*
D24*
X1068898Y1852362D3*
X1143701D3*
X1106299Y1938976D3*
D25*
X1950787Y2039370D3*
D26*
Y1839370D3*
D25*
X2050787Y1939370D3*
D14*
X1755742Y1151575D3*
X1997982Y796301D3*
D27*
X2426299Y1348564D3*
X1445576Y679870D3*
D28*
X564961Y730315D3*
Y1596457D3*
D29*
X1663386Y1838583D3*
Y2238583D3*
X1106299Y2153543D3*
Y2553543D3*
X2393701Y1923228D3*
Y2323228D3*
X976378Y1240157D3*
Y1640157D3*
X828740Y1641732D3*
Y1241732D3*
D32*
X903543Y1109449D3*
Y1009449D3*
Y909449D3*
M02*
