M48
INCH
T01C0.0276
T02C0.0315
T03C0.0472
T04C0.1654
%
T01
X+008366Y+021535
X+010335Y+021535
X+009764Y+019390
X+009764Y+018890
X+009764Y+018390
X+009760Y+017283
X+008760Y+017283
X+019508Y+018394
X+020508Y+019394
X+019508Y+020394
X+022421Y+019567
X+022421Y+021535
T02
X+008366Y+023386
X+008366Y+024173
X+011406Y+025543
X+011406Y+021543
X+013720Y+020079
X+013720Y+018701
X+016634Y+018386
X+016634Y+022386
X+022461Y+024154
X+022461Y+025531
X+023937Y+023232
X+023937Y+019232
X+009764Y+016402
X+008287Y+016417
X+007028Y+018563
X+005650Y+018563
X+008287Y+012417
X+009764Y+012402
X+009035Y+011094
X+009035Y+010094
X+009035Y+009094
T03
X+025512Y+025512
X+024736Y+017217
X+017557Y+011516
X+019980Y+007963
X+025512Y+005291
X+005630Y+005630
X+005650Y+007303
X+005650Y+015965
X+005276Y+025512
T04
X+024263Y+013486
X+014456Y+006799
T00
M30
