G04 DipTrace 4.3.0.5*
G04 1 - Top.gbr*
%MOIN*%
G04 #@! TF.FileFunction,Copper,L1,Top*
G04 #@! TF.Part,Single*
G04 #@! TA.AperFunction,Conductor*
%ADD17C,0.03937*%
%ADD18C,0.019685*%
G04 #@! TA.AperFunction,ComponentPad*
%ADD19C,0.062992*%
%ADD20C,0.070866*%
%ADD22R,0.040157X0.057874*%
%ADD23R,0.057874X0.040157*%
%ADD24R,0.029528X0.037402*%
G04 #@! TA.AperFunction,ComponentPad*
%ADD25C,0.07874*%
%ADD27R,0.023622X0.041339*%
G04 #@! TA.AperFunction,ComponentPad*
%ADD28C,0.045997*%
%ADD29R,0.045997X0.045997*%
%ADD30C,0.076378*%
%ADD31C,0.259449*%
%ADD32C,0.094488*%
%ADD33C,0.055118*%
%ADD34C,0.059055*%
%FSLAX26Y26*%
G04*
G70*
G90*
G75*
G01*
G04 Top*
%LPD*%
X448819Y-1311024D2*
D18*
Y-1368898D1*
G02X375984Y-1441732I-72837J2D01*
G01*
D3*
X37500Y-1987500D2*
X212500D1*
G03X450000Y-1750000I1J237499D01*
G01*
Y-1515748D1*
G03X375984Y-1441732I-74016J1D01*
G01*
X0Y0D2*
X115140D1*
G02X303150Y-188009I-1J-188010D01*
G01*
Y-224409D1*
X1135827Y-712598D2*
X1422441D1*
X1423228Y-711811D1*
Y-1204596D1*
G02X1228195Y-1399602I-195001J-5D01*
G01*
X175197Y-633858D2*
D17*
Y-1683071D1*
G02X37402Y-1820866I-137796J1D01*
G01*
D3*
X1523228Y-611811D2*
D18*
X580315D1*
X579921Y-612205D1*
X578740D1*
Y-527559D2*
Y-397638D1*
Y-527559D2*
Y-612205D1*
X541339Y-698819D2*
Y-795276D1*
G03X549213Y-803150I7872J-2D01*
G01*
X551181D1*
X515748Y-527559D2*
Y-665354D1*
X541339Y-690945D1*
Y-698819D1*
X303150Y-303150D2*
Y-347587D1*
G03X483122Y-527559I179972J0D01*
G01*
X515748D1*
X551181Y-803150D2*
X377978D1*
G03X301181Y-879946I1J-76797D01*
G01*
Y-909449D1*
X616142Y-698819D2*
Y-745883D1*
Y-799213D1*
G02X612205Y-803150I-3938J1D01*
G01*
X606299D1*
X616142Y-745883D2*
X779707D1*
G03X844488Y-681102I0J64780D01*
G01*
X616142Y-698819D2*
Y-833858D1*
G02X537500Y-912500I-78643J2D01*
G01*
X450295D1*
G02X448819Y-911024I2J1479D01*
G01*
X301181Y-1309449D2*
Y-1466929D1*
G03X375984Y-1541732I74804J0D01*
G01*
D3*
X844488Y-543307D2*
Y-496285D1*
G02X943135Y-397637I98648J0D01*
G01*
X1647638Y-397638D1*
X1770552D1*
G02X1866142Y-493227I0J-95590D01*
G01*
Y-712598D1*
X1647638Y-448819D2*
Y-397638D1*
X1866142Y-712598D2*
Y-741142D1*
G03X1950000Y-825000I83859J1D01*
G01*
X1718504Y-135827D2*
X1774016D1*
G02X1866142Y-227953I0J-92126D01*
G01*
Y-312598D1*
X1423228Y-511811D2*
X1647638D1*
Y-1094840D1*
G03X1755398Y-1202606I107781J14D01*
G01*
X1898756Y-1202629D1*
D19*
X303150Y-303150D3*
Y-224409D3*
X1718504Y-135827D3*
Y1969D3*
X844488Y-543307D3*
Y-681102D3*
D20*
X175197Y-633858D3*
X37402D3*
D22*
X515748Y-527559D3*
X578740D3*
D23*
X1647638Y-448819D3*
Y-511811D3*
D24*
X551181Y-803150D3*
X606299D3*
D25*
X2025000Y0D3*
X1950000Y-825000D3*
X2025000Y-2025000D3*
X37500Y-1987500D3*
X0Y0D3*
D27*
X541339Y-698819D3*
X616142D3*
X578740Y-612205D3*
D28*
X1423228Y-511811D3*
D29*
Y-711811D3*
D28*
X1523228Y-611811D3*
D30*
X1228195Y-1399602D3*
X1470426Y-1754882D3*
D31*
X1898756Y-1202629D3*
X918017Y-1871299D3*
D32*
X37402Y-1820866D3*
Y-954724D3*
D33*
X1135827Y-712598D3*
Y-312598D3*
X578740Y-397638D3*
Y2362D3*
X1866142Y-712598D3*
Y-312598D3*
X448819Y-1311024D3*
Y-911024D3*
X301181Y-909449D3*
Y-1309449D3*
D34*
X375984Y-1441732D3*
Y-1541732D3*
Y-1641732D3*
M02*
