G04 DipTrace 4.3.0.5*
G04 2 - Bottom.gbr*
%MOIN*%
G04 #@! TF.FileFunction,Copper,L2,Bot*
G04 #@! TF.Part,Single*
G04 #@! TA.AperFunction,Conductor*
%ADD16C,0.07874*%
%ADD17C,0.03937*%
%ADD18C,0.019685*%
G04 #@! TA.AperFunction,ComponentPad*
%ADD19C,0.062992*%
%ADD20C,0.070866*%
%ADD25C,0.07874*%
%ADD28C,0.045997*%
%ADD29R,0.045997X0.045997*%
%ADD30C,0.076378*%
%ADD31C,0.259449*%
%ADD32C,0.094488*%
%ADD33C,0.055118*%
%ADD34C,0.059055*%
%FSLAX26Y26*%
G04*
G70*
G90*
G75*
G01*
G04 Bottom*
%LPD*%
X37402Y-633858D2*
D16*
Y-326629D1*
G02X364031Y0I326633J-5D01*
G01*
X578740Y2362D1*
X1135827Y1969D1*
X1718504D1*
X1135827Y-312598D2*
D17*
Y1969D1*
X1718504D2*
D16*
X2025000D1*
Y0D1*
X37402Y-954724D2*
Y-633858D1*
X1470425Y-1754882D2*
G03X1357437Y-1641752I-112887J243D01*
G01*
X375984Y-1641732D1*
X216535D1*
G03X37402Y-1820866I0J-179134D01*
G01*
D3*
X375984Y-1641732D2*
D18*
D3*
X1898756Y-1202629D2*
D16*
X1898757Y-1897301D1*
G03X2025000Y-2025000I130061J2326D01*
G01*
D19*
X303150Y-303150D3*
Y-224409D3*
X1718504Y-135827D3*
Y1969D3*
X844488Y-543307D3*
Y-681102D3*
D20*
X175197Y-633858D3*
X37402D3*
D25*
X2025000Y0D3*
X1950000Y-825000D3*
X2025000Y-2025000D3*
X37500Y-1987500D3*
X0Y0D3*
D28*
X1423228Y-511811D3*
D29*
Y-711811D3*
D28*
X1523228Y-611811D3*
D30*
X1228195Y-1399602D3*
X1470426Y-1754882D3*
D31*
X1898756Y-1202629D3*
X918017Y-1871299D3*
D32*
X37402Y-1820866D3*
Y-954724D3*
D33*
X1135827Y-712598D3*
Y-312598D3*
X578740Y-397638D3*
Y2362D3*
X1866142Y-712598D3*
Y-312598D3*
X448819Y-1311024D3*
Y-911024D3*
X301181Y-909449D3*
Y-1309449D3*
D34*
X375984Y-1441732D3*
Y-1541732D3*
Y-1641732D3*
M02*
