G04 DipTrace 4.3.0.5*
G04 BottomDimension.gbr*
%MOIN*%
G04 #@! TF.FileFunction,Drawing,Bot*
G04 #@! TF.Part,Single*
%ADD15C,0.001378*%
%ADD63C,0.006176*%
%FSLAX26Y26*%
G04*
G70*
G90*
G75*
G01*
G04 BotDimension*
%LPD*%
X918143Y-1871311D2*
D15*
X2566929D1*
X911417Y-2155512D2*
X2566929D1*
X2547244Y-2013411D2*
Y-1910681D1*
G36*
Y-1871311D2*
X2555118Y-1910681D1*
X2539370D1*
X2547244Y-1871311D1*
G37*
Y-2013411D2*
D15*
Y-2116142D1*
G36*
Y-2155512D2*
X2539370Y-2116142D1*
X2555118D1*
X2547244Y-2155512D1*
G37*
X2590052Y-2095698D2*
D63*
X2591953D1*
X2595800Y-2093797D1*
X2597701Y-2091895D1*
X2599603Y-2088049D1*
Y-2080399D1*
X2597701Y-2076597D1*
X2595800Y-2074695D1*
X2591953Y-2072750D1*
X2588151D1*
X2584304Y-2074695D1*
X2578600Y-2078498D1*
X2559455Y-2097643D1*
Y-2070849D1*
X2599603Y-2048947D2*
X2597701Y-2054650D1*
X2593899Y-2056596D1*
X2590052D1*
X2586250Y-2054650D1*
X2584304Y-2050848D1*
X2582403Y-2043199D1*
X2580501Y-2037451D1*
X2576655Y-2033648D1*
X2572852Y-2031747D1*
X2567104D1*
X2563302Y-2033648D1*
X2561356Y-2035549D1*
X2559455Y-2041297D1*
Y-2048947D1*
X2561356Y-2054650D1*
X2563302Y-2056596D1*
X2567104Y-2058497D1*
X2572852D1*
X2576655Y-2056596D1*
X2580501Y-2052749D1*
X2582403Y-2047045D1*
X2584304Y-2039396D1*
X2586250Y-2035549D1*
X2590052Y-2033648D1*
X2593899D1*
X2597701Y-2035549D1*
X2599603Y-2041297D1*
Y-2048947D1*
X2559455Y-2000250D2*
X2599603D1*
X2572852Y-2019395D1*
Y-1990699D1*
X2563302Y-1976447D2*
X2561356Y-1978348D1*
X2559455Y-1976447D1*
X2561356Y-1974501D1*
X2563302Y-1976447D1*
X2590052Y-1960204D2*
X2591953D1*
X2595800Y-1958303D1*
X2597701Y-1956402D1*
X2599603Y-1952555D1*
Y-1944906D1*
X2597701Y-1941103D1*
X2595800Y-1939202D1*
X2591953Y-1937256D1*
X2588151D1*
X2584304Y-1939202D1*
X2578600Y-1943005D1*
X2559455Y-1962150D1*
Y-1935355D1*
M02*
