M48
INCH
T01C0.028
T02C0.0315
T03C0.0472
T04C0.0508
T05C0.1728
%
T01
X+014232Y-005118
X+015232Y-006118
X+014232Y-007118
T02
X+003031Y-003031
X+003031Y-002244
X+005787Y-003976
X+008445Y-005433
X+008445Y-006811
X+011358Y-007126
X+011358Y-003126
X+017185Y-001358
X+017185Y+000020
X+018661Y-003126
X+018661Y-007126
X+004488Y-009110
X+003012Y-009094
X+001752Y-006339
X+000374Y-006339
X+003012Y-013094
X+004488Y-013110
X+003760Y-014417
X+003760Y-015417
X+003760Y-016417
X+005787Y+000024
T03
X+020250Y+000000
X+019500Y-008250
X+020250Y-020250
X+000375Y-019875
X+000374Y-018209
X+000374Y-009547
X+000000Y+000000
T04
X+012282Y-013996
X+014704Y-017549
T05
X+018988Y-012026
X+009180Y-018713
T00
M30
