G04 DipTrace 4.3.0.5*
G04 TopAssembly.gbr*
%MOIN*%
G04 #@! TF.FileFunction,Drawing,Top*
G04 #@! TF.Part,Single*
%ADD21C,0.003937*%
%ADD26C,0.007874*%
%FSLAX26Y26*%
G04*
G70*
G90*
G75*
G01*
G04 TopAssy*
%LPD*%
X507871Y-502951D2*
D21*
X586617D1*
Y-552167D1*
X507871D1*
Y-502951D1*
X1672245Y-440942D2*
Y-519688D1*
X1623030D1*
Y-440942D1*
X1672245D1*
X547241Y-787400D2*
X610239D1*
Y-818899D1*
X547241D1*
Y-787400D1*
X521598Y-681102D2*
Y-629921D1*
X635882D1*
Y-681102D1*
X521598D1*
X559113D2*
X521598Y-643689D1*
X1196415Y-1234269D2*
D26*
X1196150Y-1234449D1*
G03X1618466Y-1853861I211158J-309706D01*
G01*
X1618731Y-1853681D1*
G03X1196415Y-1234269I-211158J309706D01*
G01*
X1562343Y-2044887D2*
G03X1810720Y-1875544I-18069J293321D01*
G01*
X1562343Y-2044887D1*
X752109Y-1820332D2*
G03X904118Y-2043284I169616J-47651D01*
G01*
X752722Y-1821231D1*
X1250741Y-1037884D2*
G03X987157Y-1217596I40129J-342013D01*
G01*
X1250741Y-1037884D1*
X2063551Y-1258049D2*
G03X1907251Y-1028804I-161694J57662D01*
G01*
X2063551Y-1258049D1*
G36*
X475984Y-1729331D2*
X473799D1*
X467339D1*
X456886D1*
X442898D1*
X425984D1*
X406886D1*
X386437D1*
X365531D1*
X345083D1*
X325984D1*
X309071D1*
X295083D1*
X284630D1*
X278169D1*
X275984D1*
X278169D1*
X284630D1*
X295083D1*
X309071D1*
X325984D1*
X345083D1*
X365531D1*
X386437D1*
X406886D1*
X425984D1*
X442898D1*
X456886D1*
X467339D1*
X473799D1*
X475984D1*
G37*
G36*
X288484Y-1678529D2*
X288853Y-1672902D1*
X289953Y-1667371D1*
X291766Y-1662031D1*
X294260Y-1656974D1*
X297393Y-1652285D1*
X301111Y-1648045D1*
X305351Y-1644327D1*
X310039Y-1641194D1*
X315097Y-1638700D1*
X320437Y-1636888D1*
X325967Y-1635787D1*
X331594Y-1635419D1*
X337222Y-1635787D1*
X342752Y-1636888D1*
X348092Y-1638700D1*
X353150Y-1641194D1*
X357838Y-1644327D1*
X362078Y-1648045D1*
X365796Y-1652285D1*
X368929Y-1656974D1*
X371423Y-1662031D1*
X373236Y-1667371D1*
X374336Y-1672902D1*
X374705Y-1678529D1*
D1*
X374336Y-1684156D1*
X373236Y-1689687D1*
X371423Y-1695026D1*
X368929Y-1700084D1*
X365796Y-1704773D1*
X362078Y-1709012D1*
X357838Y-1712731D1*
X353150Y-1715863D1*
X348092Y-1718358D1*
X342752Y-1720170D1*
X337222Y-1721270D1*
X331594Y-1721639D1*
X325967Y-1721270D1*
X320437Y-1720170D1*
X315097Y-1718358D1*
X310039Y-1715863D1*
X305351Y-1712731D1*
X301111Y-1709012D1*
X297393Y-1704773D1*
X294260Y-1700084D1*
X291766Y-1695026D1*
X289953Y-1689687D1*
X288853Y-1684156D1*
X288484Y-1678529D1*
D1*
G37*
M02*
