G04 DipTrace 4.3.0.5*
G04 TopMask.gbr*
%MOIN*%
G04 #@! TF.FileFunction,Soldermask,Top*
G04 #@! TF.Part,Single*
%ADD19C,0.062992*%
%ADD20C,0.070866*%
%ADD25C,0.07874*%
%ADD41C,0.066929*%
%ADD44C,0.102362*%
%ADD45C,0.086614*%
%ADD46C,0.267323*%
%ADD48C,0.084252*%
%ADD50R,0.053871X0.053871*%
%ADD52C,0.053871*%
%ADD54R,0.031496X0.049213*%
%ADD56R,0.037402X0.045276*%
%ADD58R,0.065748X0.048031*%
%ADD60R,0.048031X0.065748*%
%FSLAX26Y26*%
G04*
G70*
G90*
G75*
G01*
G04 TopMask*
%LPD*%
D20*
X303150Y-303150D3*
Y-224409D3*
X1718504Y-135827D3*
Y1969D3*
X844488Y-543307D3*
Y-681102D3*
D25*
X175197Y-633858D3*
X37402D3*
D60*
X515748Y-527559D3*
X578740D3*
D58*
X1647638Y-448819D3*
Y-511811D3*
D56*
X551181Y-803150D3*
X606299D3*
D45*
X2025000Y0D3*
X1950000Y-825000D3*
X2025000Y-2025000D3*
X37500Y-1987500D3*
X0Y0D3*
D54*
X541339Y-698819D3*
X616142D3*
X578740Y-612205D3*
D52*
X1423228Y-511811D3*
D50*
Y-711811D3*
D52*
X1523228Y-611811D3*
D48*
X1228195Y-1399602D3*
X1470426Y-1754882D3*
D46*
X1898756Y-1202629D3*
X918017Y-1871299D3*
D44*
X37402Y-1820866D3*
Y-954724D3*
D19*
X1135827Y-712598D3*
Y-312598D3*
X578740Y-397638D3*
Y2362D3*
X1866142Y-712598D3*
Y-312598D3*
X448819Y-1311024D3*
Y-911024D3*
X301181Y-909449D3*
Y-1309449D3*
D41*
X375984Y-1441732D3*
Y-1541732D3*
Y-1641732D3*
M02*
